# xmcd
#
# Track frame offsets:
#	150
#	15243
#	33732
#	47897
#	64211
#	82114
#	99049
#	111587
#	127213
#	145483
#	161143
#	178734
#	195775
#	214228
#	231607
#
# Disc length: 3263 seconds
#
# Revision: 1
# Processed by: cddbd v1.5.2PL0 Copyright (c) Steve Scherf et al.
# Submitted via: audiograbber 1.83.01
#
DISCID=e00cbd0f
DTITLE=Various Artist - CDX 648
DYEAR=2017
DGENRE=Country
TTITLE0=Lauren Alaina - Doin' Fine
TTITLE1=Chris Stapleton - Either Way
TTITLE2=Chris Janson - Fix A Drink 
TTITLE3=Gary Allan - Mess Me Up
TTITLE4=RG Dempster - Blue Skies, Yellow Sun
TTITLE5=Sophie Noelle - Grapevine Texas
TTITLE6=Grant Maloy Smith - I Come From America
TTITLE7=Blake Torrey - Last Night
TTITLE8=Melanie Meriney - Lifeboat
TTITLE9=Melissa Ramski - Masquerade 
TTITLE10=Scott Coner and Tanya Tucker - Maybe She Lied
TTITLE11=Art Carter - MightyMississippi
TTITLE12=Cherie Brennan - Mystery
TTITLE13=Andy Ross - Playing In The Mud
TTITLE14=Risa Binder - You Haul 
EXTD=
EXTT0=
EXTT1=
EXTT2=
EXTT3=
EXTT4=
EXTT5=
EXTT6=
EXTT7=
EXTT8=
EXTT9=
EXTT10=
EXTT11=
EXTT12=
EXTT13=
EXTT14=
PLAYORDER=
